<svg id="svg" version="1.1" xmlns="http://www.w3.org/2000/svg" xmlns:xlink="http://www.w3.org/1999/xlink" width="400" height="400" viewBox="0, 0, 400,400"><g id="svgg"><path id="path0" d="M243.000 202.854 C 240.659 203.040,136.519 203.261,78.947 203.202 C 77.155 203.200,76.862 203.315,76.650 204.100 C 76.338 205.256,76.326 383.341,76.638 384.154 C 76.882 384.792,248.325 385.363,254.761 384.748 C 256.213 384.609,259.560 384.289,262.200 384.037 C 267.401 383.541,272.181 382.666,274.400 381.804 C 275.170 381.505,276.429 381.153,277.198 381.021 C 278.864 380.735,285.037 378.456,288.746 376.757 C 293.508 374.576,296.462 373.081,296.936 372.611 C 297.191 372.358,298.541 371.483,299.936 370.666 C 306.017 367.109,315.283 359.067,320.800 352.561 C 323.085 349.866,324.674 347.758,324.917 347.100 C 325.059 346.715,325.343 346.400,325.548 346.400 C 326.058 346.400,331.478 337.071,333.682 332.400 C 336.437 326.563,336.643 326.015,338.733 319.000 C 341.415 309.998,342.948 295.766,342.052 288.200 C 340.889 278.377,340.415 275.219,339.802 273.200 C 339.435 271.990,338.854 269.650,338.511 268.000 C 338.168 266.350,337.479 264.190,336.978 263.200 C 336.478 262.210,335.677 260.230,335.200 258.800 C 334.722 257.370,334.068 255.906,333.746 255.547 C 333.425 255.188,332.989 254.268,332.777 253.502 C 332.566 252.736,331.858 251.320,331.204 250.355 C 330.550 249.390,330.011 248.446,330.007 248.258 C 330.003 248.070,329.442 247.089,328.760 246.078 C 328.078 245.068,327.362 243.827,327.170 243.320 C 326.977 242.814,326.638 242.400,326.415 242.400 C 326.192 242.400,325.553 241.725,324.993 240.900 C 321.619 235.921,320.258 234.285,315.769 229.816 C 311.712 225.776,310.083 224.341,307.930 222.910 C 307.122 222.373,306.362 221.678,306.243 221.367 C 306.123 221.055,305.783 220.800,305.487 220.800 C 305.192 220.800,304.432 220.260,303.800 219.600 C 303.168 218.940,302.438 218.400,302.179 218.400 C 301.920 218.400,301.279 218.066,300.754 217.657 C 300.229 217.249,298.540 216.238,297.000 215.411 C 295.460 214.585,294.110 213.775,294.000 213.612 C 293.890 213.449,293.134 213.099,292.320 212.833 C 291.505 212.568,290.220 211.931,289.463 211.417 C 288.705 210.903,287.489 210.351,286.759 210.191 C 284.967 209.797,282.150 208.567,281.820 208.033 C 281.673 207.795,281.061 207.600,280.460 207.600 C 278.850 207.600,274.718 206.450,274.003 205.803 C 273.662 205.494,272.126 205.133,270.591 205.002 C 267.725 204.756,260.613 203.875,256.000 203.194 C 252.560 202.686,246.959 202.540,243.000 202.854 " stroke="none" fill="#d30533" fill-rule="evenodd"></path><path id="path1" d="M76.605 16.499 C 76.478 17.215,76.425 59.290,76.487 110.000 L 76.600 202.200 162.200 202.302 C 209.280 202.358,248.835 202.290,250.100 202.150 C 252.443 201.892,253.192 200.952,252.001 199.761 C 251.738 199.498,251.567 167.901,251.501 107.381 L 251.400 15.400 164.118 15.299 L 76.837 15.198 76.605 16.499 " stroke="none" fill="#047bb3" fill-rule="evenodd"></path><path id="path2" d="M253.452 16.500 C 253.319 16.995,253.208 59.025,253.205 109.900 L 253.200 202.400 254.100 202.391 C 255.777 202.376,264.595 201.284,265.400 200.993 C 265.840 200.834,266.920 200.381,267.800 199.986 C 268.680 199.591,270.390 199.145,271.600 198.996 C 273.023 198.820,274.012 198.459,274.400 197.975 C 274.730 197.563,276.170 196.928,277.600 196.564 C 279.030 196.200,280.709 195.475,281.331 194.951 C 281.953 194.428,282.943 193.992,283.531 193.982 C 285.162 193.954,286.776 193.111,287.325 192.000 C 287.635 191.371,288.222 190.953,288.905 190.874 C 289.502 190.804,290.218 190.442,290.496 190.068 C 291.090 189.267,292.916 188.400,294.009 188.400 C 294.456 188.400,295.033 187.910,295.383 187.233 C 295.778 186.469,296.419 185.972,297.242 185.791 C 297.987 185.627,298.578 185.207,298.695 184.758 C 298.804 184.341,299.050 184.000,299.242 184.000 C 299.434 184.000,300.585 183.100,301.800 182.000 C 303.015 180.900,304.367 180.000,304.804 180.000 C 305.304 180.000,305.600 179.732,305.600 179.280 C 305.600 178.309,306.372 177.600,307.430 177.600 C 308.064 177.600,308.361 177.295,308.525 176.476 C 308.662 175.790,309.150 175.169,309.775 174.884 C 310.339 174.627,310.800 174.239,310.800 174.022 C 310.800 173.805,311.607 172.718,312.594 171.607 C 313.581 170.496,314.499 169.146,314.634 168.608 C 314.769 168.069,315.225 167.519,315.647 167.385 C 316.068 167.251,316.664 166.542,316.970 165.809 C 317.276 165.077,317.903 164.358,318.363 164.212 C 318.824 164.066,319.200 163.615,319.200 163.211 C 319.200 162.807,319.816 161.739,320.568 160.838 C 321.321 159.937,322.056 158.654,322.203 157.987 C 322.350 157.319,322.869 156.511,323.358 156.191 C 323.918 155.824,324.444 154.831,324.781 153.504 C 325.074 152.347,325.739 150.891,326.257 150.269 C 326.776 149.647,327.299 148.657,327.420 148.069 C 327.942 145.529,328.618 143.766,329.246 143.305 C 329.687 142.981,330.016 141.945,330.198 140.305 C 330.360 138.848,330.869 137.117,331.415 136.168 C 332.081 135.011,332.528 133.209,332.955 129.968 C 333.286 127.456,333.855 124.803,334.221 124.074 C 336.122 120.278,335.992 101.859,334.008 93.813 C 333.572 92.046,333.040 88.926,332.825 86.879 C 332.504 83.814,332.256 82.945,331.418 81.948 C 330.731 81.132,330.400 80.260,330.400 79.267 C 330.400 77.236,329.772 75.234,328.814 74.215 C 328.372 73.744,327.825 72.378,327.600 71.179 C 327.241 69.264,326.434 68.000,325.570 68.000 C 325.417 68.000,325.168 67.008,325.017 65.795 C 324.779 63.892,324.581 63.507,323.571 62.985 C 322.927 62.652,322.400 62.111,322.400 61.783 C 322.400 60.337,321.358 58.018,320.541 57.646 C 320.057 57.425,319.603 56.832,319.531 56.326 C 319.457 55.809,318.939 55.187,318.344 54.903 C 317.583 54.539,317.215 53.981,317.023 52.899 C 316.582 50.410,316.411 50.090,315.392 49.834 C 314.793 49.683,314.315 49.202,314.163 48.595 C 314.026 48.049,313.446 47.377,312.874 47.101 C 312.302 46.826,311.728 46.151,311.599 45.602 C 311.468 45.041,311.022 44.541,310.582 44.459 C 309.473 44.253,308.867 43.676,308.724 42.687 C 308.647 42.159,308.219 41.743,307.602 41.599 C 307.041 41.467,306.541 41.022,306.459 40.582 C 306.241 39.406,305.606 38.800,304.590 38.800 C 303.937 38.800,303.560 38.460,303.260 37.600 C 302.971 36.771,302.577 36.400,301.986 36.400 C 301.411 36.400,300.988 36.023,300.696 35.249 C 300.364 34.369,299.829 33.964,298.431 33.534 C 297.253 33.172,296.457 32.649,296.200 32.067 C 295.936 31.470,295.228 31.019,294.113 30.737 C 293.185 30.503,292.327 30.016,292.206 29.656 C 291.992 29.019,289.413 27.600,288.469 27.600 C 288.211 27.600,288.000 27.252,288.000 26.827 C 288.000 26.402,287.685 25.971,287.300 25.870 C 286.915 25.768,285.745 25.463,284.700 25.191 C 283.651 24.918,282.800 24.461,282.800 24.172 C 282.800 23.391,282.088 23.082,279.206 22.611 C 277.028 22.255,276.580 22.046,276.479 21.344 C 276.351 20.457,274.545 20.000,271.173 20.000 C 269.756 20.000,269.423 19.807,268.084 18.214 C 267.744 17.809,266.860 17.598,265.484 17.593 C 261.361 17.579,255.816 16.815,255.356 16.197 C 254.701 15.316,253.728 15.471,253.452 16.500 " stroke="none" fill="#f48f06" fill-rule="evenodd"></path><path id="path3" d="M0.000 200.000 L 0.000 400.000 200.000 400.000 L 400.000 400.000 400.000 200.000 L 400.000 0.000 200.000 0.000 L 0.000 0.000 0.000 200.000 M257.600 15.334 C 259.690 15.737,262.390 16.309,263.600 16.604 C 264.810 16.899,266.610 17.312,267.600 17.521 C 270.283 18.087,275.428 19.918,278.637 21.448 C 280.197 22.191,281.746 22.800,282.081 22.800 C 282.415 22.800,283.345 23.246,284.148 23.791 C 284.951 24.335,286.493 25.162,287.575 25.627 C 288.657 26.093,289.854 26.817,290.233 27.237 C 290.613 27.657,291.167 28.000,291.463 28.000 C 292.247 28.000,294.803 29.436,295.899 30.491 C 298.093 32.603,298.658 33.049,299.740 33.521 C 300.367 33.795,300.971 34.369,301.083 34.796 C 301.195 35.224,301.604 35.674,301.991 35.797 C 303.024 36.125,312.000 44.991,312.000 45.683 C 312.000 46.007,312.454 46.478,313.008 46.731 C 313.562 46.983,314.189 47.646,314.401 48.202 C 314.612 48.759,315.216 49.378,315.742 49.578 C 316.297 49.789,316.815 50.406,316.976 51.047 C 317.129 51.655,317.769 52.804,318.400 53.600 C 319.031 54.396,319.671 55.545,319.824 56.153 C 319.977 56.761,320.495 57.408,320.976 57.591 C 321.545 57.807,322.029 58.531,322.362 59.662 C 322.644 60.618,323.290 61.850,323.800 62.400 C 324.309 62.950,324.905 64.064,325.124 64.876 C 325.343 65.687,325.990 66.964,326.562 67.714 C 327.133 68.464,327.752 69.886,327.937 70.875 C 328.122 71.864,328.630 73.030,329.067 73.467 C 329.529 73.929,330.067 75.336,330.353 76.831 C 330.623 78.244,331.268 80.210,331.784 81.200 C 332.399 82.378,332.882 84.314,333.181 86.800 C 333.433 88.890,333.880 91.320,334.175 92.200 C 335.982 97.586,336.234 122.214,334.516 125.482 C 333.941 126.575,333.427 128.733,333.047 131.642 C 332.627 134.855,332.230 136.433,331.640 137.231 C 331.188 137.842,330.715 139.120,330.589 140.071 C 330.248 142.642,329.499 144.923,328.774 145.600 C 328.420 145.930,327.900 147.190,327.619 148.400 C 327.338 149.610,326.771 150.870,326.358 151.200 C 325.945 151.530,325.386 152.734,325.115 153.876 C 324.787 155.259,324.351 156.078,323.811 156.327 C 323.343 156.542,322.698 157.565,322.286 158.744 C 321.893 159.868,321.233 160.969,320.818 161.190 C 320.403 161.412,319.859 162.217,319.607 162.978 C 319.356 163.739,318.794 164.475,318.359 164.613 C 317.903 164.758,317.469 165.353,317.337 166.017 C 317.210 166.651,316.694 167.440,316.190 167.770 C 315.264 168.376,314.000 170.492,314.000 171.434 C 314.000 171.715,313.595 172.002,313.100 172.072 C 312.559 172.149,311.960 172.698,311.600 173.449 C 311.270 174.135,310.505 174.982,309.900 175.330 C 309.264 175.696,308.800 176.308,308.800 176.781 C 308.800 177.377,308.541 177.600,307.849 177.600 C 306.792 177.600,306.161 178.195,305.939 179.400 C 305.853 179.867,305.415 180.254,304.886 180.329 C 304.388 180.400,303.700 180.886,303.357 181.409 C 303.015 181.932,302.119 182.723,301.367 183.166 C 300.615 183.610,300.000 184.207,300.000 184.492 C 300.000 184.960,297.313 186.400,296.441 186.400 C 296.246 186.400,295.979 186.830,295.847 187.355 C 295.673 188.049,295.237 188.379,294.252 188.564 C 293.507 188.704,292.423 189.258,291.843 189.795 C 291.263 190.332,290.090 190.960,289.237 191.190 C 288.108 191.494,287.619 191.872,287.442 192.575 C 287.242 193.371,286.791 193.634,284.900 194.055 C 283.635 194.337,282.330 194.886,282.000 195.275 C 281.670 195.664,280.383 196.242,279.140 196.559 C 277.898 196.876,276.188 197.579,275.340 198.122 C 274.493 198.665,272.967 199.213,271.948 199.341 C 270.929 199.468,269.237 200.028,268.188 200.586 C 267.139 201.144,265.723 201.608,265.040 201.619 C 264.358 201.629,262.630 201.865,261.200 202.143 L 258.600 202.649 262.952 202.967 C 265.345 203.141,267.904 203.535,268.639 203.842 C 269.373 204.149,270.606 204.400,271.379 204.400 C 272.152 204.400,273.462 204.654,274.292 204.965 C 275.121 205.276,276.497 205.628,277.350 205.748 C 278.202 205.868,279.206 206.243,279.581 206.583 C 279.956 206.922,280.603 207.200,281.018 207.200 C 281.979 207.200,285.213 208.383,286.000 209.023 C 286.330 209.292,287.140 209.634,287.800 209.785 C 288.460 209.936,289.810 210.488,290.800 211.013 C 291.790 211.538,293.095 212.173,293.700 212.423 C 294.305 212.673,294.800 213.041,294.800 213.239 C 294.800 213.438,295.136 213.600,295.546 213.600 C 295.956 213.600,296.721 213.915,297.246 214.300 C 297.771 214.685,298.830 215.347,299.600 215.771 C 301.072 216.581,304.181 218.786,305.200 219.742 C 305.530 220.052,306.493 220.772,307.341 221.342 C 309.194 222.590,312.547 225.432,313.738 226.765 C 314.212 227.295,315.026 228.105,315.547 228.565 C 317.896 230.636,320.453 233.468,323.163 237.000 C 324.893 239.255,324.853 239.204,326.506 241.241 C 327.328 242.254,328.000 243.385,328.000 243.754 C 328.000 244.123,328.251 244.522,328.559 244.640 C 328.866 244.757,329.541 245.691,330.059 246.714 C 330.576 247.737,331.495 249.282,332.100 250.147 C 332.705 251.012,333.200 251.887,333.200 252.091 C 333.200 252.295,333.830 253.772,334.600 255.373 C 335.370 256.974,336.000 258.487,336.000 258.736 C 336.000 258.984,336.550 260.315,337.223 261.694 C 337.896 263.072,338.547 265.100,338.671 266.200 C 338.794 267.300,339.140 268.594,339.440 269.075 C 340.137 270.193,340.748 272.818,341.425 277.600 C 341.721 279.690,342.162 282.480,342.404 283.800 C 343.004 287.060,342.776 305.504,342.123 306.600 C 341.861 307.040,341.457 308.840,341.227 310.600 C 340.521 315.985,339.946 318.908,339.423 319.773 C 339.148 320.228,338.610 321.770,338.228 323.200 C 337.845 324.630,337.194 326.520,336.781 327.400 C 336.368 328.280,335.656 329.894,335.199 330.986 C 334.743 332.078,334.232 333.068,334.064 333.186 C 333.896 333.304,333.430 334.300,333.028 335.400 C 332.625 336.500,331.734 338.300,331.046 339.400 C 330.358 340.500,329.475 342.034,329.083 342.810 C 328.692 343.585,327.793 344.852,327.086 345.625 C 326.379 346.398,325.592 347.474,325.338 348.015 C 325.083 348.557,324.248 349.720,323.481 350.600 C 322.713 351.480,321.342 353.100,320.434 354.200 C 319.525 355.300,318.629 356.380,318.443 356.600 C 317.119 358.162,310.061 364.419,307.600 366.213 C 305.950 367.416,304.330 368.638,304.000 368.929 C 302.945 369.859,299.582 371.996,297.560 373.020 C 296.482 373.567,295.600 374.178,295.600 374.380 C 295.600 374.581,295.195 374.860,294.700 374.998 C 294.205 375.137,293.440 375.415,293.000 375.617 C 292.560 375.819,291.750 376.167,291.200 376.391 C 290.650 376.615,289.930 376.962,289.600 377.162 C 287.703 378.314,278.616 381.600,277.328 381.600 C 277.016 381.600,276.184 381.902,275.480 382.271 C 274.070 383.011,272.640 383.314,266.400 384.197 C 264.090 384.524,261.210 384.960,260.000 385.166 C 254.838 386.047,76.487 385.687,75.595 384.795 C 74.542 383.742,74.501 16.324,75.554 15.055 C 76.450 13.975,251.953 14.243,257.600 15.334 " stroke="none" fill="#fbfbfb" fill-rule="evenodd"></path><path id="path4" d="M75.549 15.061 C 74.501 16.325,74.546 383.746,75.595 384.795 C 76.487 385.687,254.838 386.047,260.000 385.166 C 261.210 384.960,264.090 384.524,266.400 384.197 C 272.640 383.314,274.070 383.011,275.480 382.271 C 276.184 381.902,277.016 381.600,277.328 381.600 C 278.616 381.600,287.703 378.314,289.600 377.162 C 289.930 376.962,290.650 376.615,291.200 376.391 C 291.750 376.167,292.560 375.819,293.000 375.617 C 293.440 375.415,294.205 375.137,294.700 374.998 C 295.195 374.860,295.600 374.581,295.600 374.380 C 295.600 374.178,296.482 373.567,297.560 373.020 C 299.582 371.996,302.945 369.859,304.000 368.929 C 304.330 368.638,305.950 367.416,307.600 366.213 C 310.061 364.419,317.119 358.162,318.443 356.600 C 318.629 356.380,319.525 355.300,320.434 354.200 C 321.342 353.100,322.713 351.480,323.481 350.600 C 324.248 349.720,325.083 348.557,325.338 348.015 C 325.592 347.474,326.379 346.398,327.086 345.625 C 327.793 344.852,328.692 343.585,329.083 342.810 C 329.475 342.034,330.358 340.500,331.046 339.400 C 331.734 338.300,332.625 336.500,333.028 335.400 C 333.430 334.300,333.896 333.304,334.064 333.186 C 334.232 333.068,334.743 332.078,335.199 330.986 C 335.656 329.894,336.368 328.280,336.781 327.400 C 337.194 326.520,337.845 324.630,338.228 323.200 C 338.610 321.770,339.148 320.228,339.423 319.773 C 339.946 318.908,340.521 315.985,341.227 310.600 C 341.457 308.840,341.861 307.040,342.123 306.600 C 342.776 305.504,343.004 287.060,342.404 283.800 C 342.162 282.480,341.721 279.690,341.425 277.600 C 340.748 272.818,340.137 270.193,339.440 269.075 C 339.140 268.594,338.794 267.300,338.671 266.200 C 338.547 265.100,337.896 263.072,337.223 261.694 C 336.550 260.315,336.000 258.984,336.000 258.736 C 336.000 258.487,335.370 256.974,334.600 255.373 C 333.830 253.772,333.200 252.295,333.200 252.091 C 333.200 251.887,332.705 251.012,332.100 250.147 C 331.495 249.282,330.576 247.737,330.059 246.714 C 329.541 245.691,328.866 244.757,328.559 244.640 C 328.251 244.522,328.000 244.123,328.000 243.754 C 328.000 243.385,327.328 242.254,326.506 241.241 C 324.853 239.204,324.893 239.255,323.163 237.000 C 320.453 233.468,317.896 230.636,315.547 228.565 C 315.026 228.105,314.212 227.295,313.738 226.765 C 312.547 225.432,309.194 222.590,307.341 221.342 C 306.493 220.772,305.530 220.052,305.200 219.742 C 304.181 218.786,301.072 216.581,299.600 215.771 C 298.830 215.347,297.771 214.685,297.246 214.300 C 296.721 213.915,295.956 213.600,295.546 213.600 C 295.136 213.600,294.800 213.438,294.800 213.239 C 294.800 213.041,294.305 212.673,293.700 212.423 C 293.095 212.173,291.790 211.538,290.800 211.013 C 289.810 210.488,288.460 209.936,287.800 209.785 C 287.140 209.634,286.330 209.292,286.000 209.023 C 285.213 208.383,281.979 207.200,281.018 207.200 C 280.603 207.200,279.956 206.922,279.581 206.583 C 279.206 206.243,278.202 205.868,277.350 205.748 C 276.497 205.628,275.121 205.276,274.292 204.965 C 273.462 204.654,272.152 204.400,271.379 204.400 C 270.606 204.400,269.373 204.149,268.639 203.842 C 267.904 203.535,265.345 203.140,262.952 202.963 L 258.600 202.642 261.000 202.132 L 263.400 201.622 260.600 201.830 C 259.060 201.944,256.765 202.145,255.500 202.276 L 253.200 202.514 253.205 109.957 C 253.208 59.051,253.319 16.995,253.452 16.500 C 253.728 15.471,254.701 15.316,255.356 16.197 C 255.815 16.814,261.359 17.579,265.471 17.593 C 267.477 17.600,267.712 17.715,269.116 19.386 C 269.414 19.741,270.277 20.000,271.160 20.000 C 274.407 20.000,276.400 20.468,276.400 21.231 C 276.400 22.169,276.585 22.258,279.200 22.577 L 281.400 22.846 278.600 21.469 C 275.504 19.947,270.378 18.107,267.600 17.521 C 266.610 17.312,264.810 16.899,263.600 16.604 C 260.777 15.915,254.389 14.800,253.265 14.800 L 252.400 14.800 252.400 108.348 L 252.400 201.897 250.065 202.161 C 248.781 202.306,247.386 202.312,246.965 202.175 C 246.338 201.970,246.308 202.002,246.800 202.356 C 247.130 202.594,248.961 202.791,250.869 202.794 C 252.778 202.797,255.208 202.972,256.269 203.182 C 258.333 203.589,266.516 204.625,270.800 205.020 C 272.230 205.152,273.675 205.509,274.012 205.812 C 274.721 206.452,278.861 207.600,280.460 207.600 C 281.061 207.600,281.673 207.795,281.820 208.033 C 282.150 208.567,284.967 209.797,286.759 210.191 C 287.489 210.351,288.705 210.903,289.463 211.417 C 290.220 211.931,291.505 212.568,292.320 212.833 C 293.134 213.099,293.890 213.449,294.000 213.612 C 294.110 213.775,295.460 214.585,297.000 215.411 C 298.540 216.238,300.229 217.249,300.754 217.657 C 301.279 218.066,301.920 218.400,302.179 218.400 C 302.438 218.400,303.168 218.940,303.800 219.600 C 304.432 220.260,305.192 220.800,305.487 220.800 C 305.783 220.800,306.123 221.055,306.243 221.367 C 306.362 221.678,307.122 222.373,307.930 222.910 C 310.083 224.341,311.712 225.776,315.769 229.816 C 320.258 234.285,321.619 235.921,324.993 240.900 C 325.553 241.725,326.192 242.400,326.415 242.400 C 326.638 242.400,326.977 242.814,327.170 243.320 C 327.362 243.827,328.078 245.068,328.760 246.078 C 329.442 247.089,330.003 248.070,330.007 248.258 C 330.011 248.446,330.550 249.390,331.204 250.355 C 331.858 251.320,332.566 252.736,332.777 253.502 C 332.989 254.268,333.425 255.188,333.746 255.547 C 334.068 255.906,334.722 257.370,335.200 258.800 C 335.677 260.230,336.478 262.210,336.978 263.200 C 337.479 264.190,338.168 266.350,338.511 268.000 C 338.854 269.650,339.435 271.990,339.802 273.200 C 340.415 275.219,340.889 278.377,342.052 288.200 C 343.244 298.263,340.317 317.171,335.984 327.400 C 333.194 333.986,326.469 346.135,325.382 346.552 C 325.062 346.674,324.800 346.975,324.800 347.220 C 324.800 347.627,323.409 349.483,320.800 352.561 C 315.283 359.067,306.017 367.109,299.936 370.666 C 298.541 371.483,297.191 372.358,296.936 372.611 C 296.462 373.081,293.508 374.576,288.746 376.757 C 285.037 378.456,278.864 380.735,277.198 381.021 C 276.429 381.153,275.170 381.505,274.400 381.804 C 272.181 382.666,267.401 383.541,262.200 384.037 C 259.560 384.289,256.213 384.609,254.761 384.748 C 248.325 385.363,76.882 384.792,76.638 384.154 C 76.326 383.341,76.338 205.256,76.650 204.100 C 76.862 203.315,77.155 203.200,78.947 203.202 C 141.189 203.266,240.645 203.031,243.000 202.815 C 244.760 202.653,208.121 202.494,161.580 202.460 C 96.365 202.414,76.850 202.290,76.480 201.920 C 75.962 201.402,75.835 18.613,76.351 16.200 L 76.608 15.000 164.204 14.799 L 251.800 14.597 163.949 14.499 C 82.646 14.407,76.057 14.449,75.549 15.061 M282.100 23.232 C 282.485 23.456,282.800 23.877,282.800 24.168 C 282.800 24.462,283.642 24.915,284.700 25.191 C 285.745 25.463,286.915 25.768,287.300 25.870 C 287.685 25.971,288.000 26.402,288.000 26.827 C 288.000 27.252,288.211 27.600,288.469 27.600 C 289.413 27.600,291.992 29.019,292.206 29.656 C 292.327 30.016,293.185 30.503,294.113 30.737 C 295.228 31.019,295.936 31.470,296.200 32.067 C 296.457 32.649,297.253 33.172,298.431 33.534 C 299.829 33.964,300.364 34.369,300.696 35.249 C 300.988 36.023,301.411 36.400,301.986 36.400 C 302.577 36.400,302.971 36.771,303.260 37.600 C 303.560 38.460,303.937 38.800,304.590 38.800 C 305.606 38.800,306.241 39.406,306.459 40.582 C 306.540 41.021,307.042 41.468,307.600 41.600 C 308.158 41.732,308.660 42.179,308.741 42.618 C 308.951 43.751,309.488 44.285,310.636 44.505 C 311.746 44.717,303.283 36.207,301.970 35.791 C 301.594 35.671,301.195 35.224,301.083 34.796 C 300.971 34.369,300.367 33.795,299.740 33.521 C 298.658 33.049,298.093 32.603,295.899 30.491 C 294.803 29.436,292.247 28.000,291.463 28.000 C 291.167 28.000,290.613 27.657,290.233 27.237 C 289.854 26.817,288.657 26.093,287.575 25.627 C 286.493 25.162,284.951 24.335,284.148 23.791 C 283.345 23.246,282.398 22.805,282.044 22.812 C 281.487 22.823,281.494 22.879,282.100 23.232 M311.728 45.797 C 311.773 46.235,312.283 46.821,312.862 47.098 C 313.440 47.375,314.024 48.040,314.158 48.575 C 314.292 49.109,314.806 49.673,315.301 49.827 C 315.795 49.982,316.332 50.309,316.494 50.554 C 316.699 50.865,316.790 50.846,316.794 50.490 C 316.797 50.210,316.347 49.808,315.793 49.597 C 315.239 49.387,314.612 48.759,314.401 48.202 C 314.189 47.646,313.571 46.987,313.027 46.739 C 312.482 46.491,311.949 45.999,311.842 45.644 C 311.715 45.229,311.675 45.283,311.728 45.797 M316.996 52.350 C 317.108 53.093,317.200 53.844,317.200 54.021 C 317.200 54.197,317.740 54.611,318.400 54.940 C 319.889 55.683,319.898 55.495,318.458 53.658 C 317.830 52.856,317.198 51.930,317.054 51.600 C 316.910 51.270,316.884 51.608,316.996 52.350 M321.002 57.870 C 321.484 58.265,322.400 60.788,322.400 61.718 C 322.400 62.082,322.985 62.677,323.700 63.041 L 325.000 63.702 324.000 62.624 C 323.450 62.031,322.718 60.714,322.374 59.697 C 322.029 58.681,321.489 57.779,321.174 57.694 C 320.826 57.600,320.758 57.669,321.002 57.870 M325.200 66.921 C 325.200 67.515,325.346 68.000,325.524 68.000 C 326.428 68.000,327.233 69.220,327.593 71.139 C 327.978 73.190,330.000 76.460,330.000 75.031 C 330.000 74.684,329.611 74.011,329.136 73.536 C 328.662 73.062,328.124 71.873,327.941 70.895 C 327.510 68.590,325.200 65.241,325.200 66.921 M330.446 79.069 C 330.412 80.289,330.656 81.043,331.351 81.869 C 331.875 82.491,332.394 83.360,332.505 83.800 L 332.707 84.600 332.752 83.800 C 332.777 83.360,332.407 82.370,331.930 81.600 C 331.453 80.830,330.934 79.570,330.777 78.800 L 330.492 77.400 330.446 79.069 M332.909 86.800 C 332.909 87.790,332.987 88.195,333.082 87.700 C 333.178 87.205,333.178 86.395,333.082 85.900 C 332.987 85.405,332.909 85.810,332.909 86.800 M333.246 89.711 C 333.221 90.321,333.549 92.211,333.976 93.911 C 334.402 95.610,334.832 97.360,334.929 97.800 C 335.072 98.441,335.115 98.401,335.145 97.600 C 335.179 96.716,334.846 95.044,333.629 90.000 C 333.317 88.705,333.289 88.684,333.246 89.711 M335.309 100.400 C 335.309 101.390,335.387 101.795,335.482 101.300 C 335.578 100.805,335.578 99.995,335.482 99.500 C 335.387 99.005,335.309 99.410,335.309 100.400 M335.125 118.311 C 335.002 121.307,334.736 123.045,334.253 124.011 C 333.872 124.775,333.481 126.210,333.387 127.200 C 333.242 128.706,333.270 128.804,333.559 127.800 C 333.750 127.140,334.207 126.020,334.577 125.311 C 335.217 124.082,336.050 114.000,335.512 114.000 C 335.397 114.000,335.223 115.940,335.125 118.311 M332.893 130.800 C 332.893 131.570,332.975 131.885,333.076 131.500 C 333.176 131.115,333.176 130.485,333.076 130.100 C 332.975 129.715,332.893 130.030,332.893 130.800 M332.419 133.600 C 332.395 134.150,331.932 135.320,331.390 136.200 C 330.848 137.080,330.424 138.250,330.448 138.800 C 330.485 139.630,330.527 139.664,330.695 139.002 C 330.806 138.563,331.230 137.779,331.638 137.261 C 332.440 136.242,333.009 133.963,332.672 133.121 C 332.557 132.835,332.443 133.050,332.419 133.600 M330.046 141.477 C 330.020 142.199,329.689 142.982,329.285 143.277 C 328.460 143.881,327.399 146.847,327.720 147.654 C 327.839 147.954,327.951 147.715,327.968 147.123 C 327.986 146.530,328.322 145.810,328.715 145.523 C 329.574 144.894,330.562 142.036,330.289 140.966 C 330.165 140.483,330.076 140.672,330.046 141.477 M327.200 148.769 C 327.200 148.972,326.776 149.647,326.257 150.269 C 325.739 150.891,325.074 152.347,324.781 153.504 C 324.444 154.831,323.918 155.824,323.358 156.191 C 322.869 156.511,322.350 157.319,322.203 157.987 C 322.056 158.654,321.321 159.937,320.568 160.838 C 319.816 161.739,319.211 162.774,319.225 163.138 C 319.242 163.571,319.384 163.466,319.636 162.836 C 319.848 162.305,320.453 161.472,320.981 160.983 C 321.508 160.494,322.168 159.333,322.446 158.404 C 322.743 157.412,323.298 156.556,323.787 156.333 C 324.355 156.074,324.779 155.289,325.115 153.876 C 325.386 152.734,325.943 151.530,326.354 151.200 C 327.040 150.648,327.886 148.400,327.408 148.400 C 327.293 148.400,327.200 148.566,327.200 148.769 M317.600 164.800 C 317.160 165.240,316.800 165.874,316.800 166.209 C 316.800 166.543,316.364 167.016,315.831 167.259 C 315.298 167.502,314.755 168.125,314.625 168.644 C 314.351 169.734,310.880 173.997,309.029 175.516 C 308.683 175.799,308.425 176.429,308.454 176.916 C 308.507 177.772,308.515 177.770,308.687 176.863 C 308.785 176.347,309.346 175.649,309.933 175.311 C 310.520 174.974,311.270 174.135,311.600 173.449 C 311.960 172.698,312.559 172.149,313.100 172.072 C 313.595 172.002,314.000 171.715,314.000 171.434 C 314.000 170.492,315.264 168.376,316.190 167.770 C 316.694 167.440,317.206 166.669,317.329 166.057 C 317.453 165.436,317.960 164.747,318.476 164.499 C 318.984 164.254,319.175 164.042,318.900 164.027 C 318.625 164.012,318.040 164.360,317.600 164.800 M306.080 178.080 C 305.816 178.344,305.600 178.884,305.600 179.280 C 305.600 179.732,305.304 180.000,304.804 180.000 C 304.367 180.000,303.015 180.900,301.800 182.000 C 300.585 183.100,299.434 184.000,299.242 184.000 C 299.050 184.000,298.804 184.341,298.695 184.758 C 298.578 185.207,297.987 185.627,297.242 185.791 C 296.051 186.052,294.198 188.400,295.182 188.400 C 295.404 188.400,295.698 187.950,295.836 187.400 C 295.974 186.850,296.246 186.400,296.441 186.400 C 297.313 186.400,300.000 184.960,300.000 184.492 C 300.000 184.207,300.615 183.610,301.367 183.166 C 302.119 182.723,303.023 181.919,303.376 181.380 C 303.730 180.841,304.380 180.400,304.822 180.400 C 305.264 180.400,305.723 180.085,305.842 179.700 C 305.961 179.315,306.227 178.685,306.433 178.300 C 306.870 177.482,306.752 177.408,306.080 178.080 M292.000 188.918 C 291.450 189.173,290.773 189.689,290.496 190.065 C 290.218 190.440,289.502 190.804,288.905 190.874 C 288.222 190.953,287.635 191.371,287.325 192.000 C 287.053 192.550,286.329 193.233,285.715 193.517 L 284.600 194.034 285.796 193.785 C 287.006 193.534,287.583 192.998,287.594 192.115 C 287.597 191.849,288.329 191.434,289.221 191.194 C 290.113 190.954,291.202 190.398,291.642 189.958 C 292.081 189.519,292.837 189.000,293.320 188.805 C 293.804 188.610,293.930 188.451,293.600 188.452 C 293.270 188.453,292.550 188.663,292.000 188.918 M281.331 194.951 C 280.709 195.475,279.030 196.200,277.600 196.564 C 276.164 196.930,274.731 197.566,274.400 197.986 C 274.070 198.404,273.260 198.821,272.600 198.913 L 271.400 199.080 272.607 199.140 C 273.325 199.176,274.427 198.784,275.325 198.173 C 276.156 197.609,277.863 196.885,279.118 196.565 C 280.373 196.245,281.686 195.643,282.035 195.228 C 282.384 194.812,283.104 194.391,283.635 194.291 C 284.567 194.115,284.564 194.107,283.531 194.054 C 282.923 194.024,281.973 194.411,281.331 194.951 M268.000 199.889 C 267.230 200.251,265.970 200.765,265.200 201.032 L 263.800 201.516 265.040 201.558 C 265.723 201.581,267.094 201.168,268.087 200.640 C 269.081 200.111,270.232 199.592,270.647 199.486 C 271.214 199.340,271.153 199.285,270.400 199.262 C 269.850 199.245,268.770 199.527,268.000 199.889 " stroke="none" fill="#a8a8a8" fill-rule="evenodd"></path><path id="path5" d="M76.538 15.417 C 76.408 15.757,76.413 16.147,76.551 16.284 C 76.688 16.421,76.800 16.233,76.800 15.866 C 76.800 15.244,82.799 15.205,164.100 15.299 L 251.400 15.400 251.501 107.381 C 251.567 167.901,251.738 199.498,252.001 199.761 C 252.266 200.026,252.400 169.134,252.400 107.480 L 252.400 14.800 164.587 14.800 C 85.810 14.800,76.751 14.864,76.538 15.417 M76.197 109.400 C 76.197 160.220,76.243 181.069,76.300 155.732 C 76.357 130.395,76.357 88.815,76.300 63.332 C 76.243 37.849,76.197 58.580,76.197 109.400 " stroke="none" fill="#4bbcf1" fill-rule="evenodd"></path></g></svg>